<?xml version="1.0" standalone="no"?>
<!DOCTYPE svg PUBLIC "-//W3C//DTD SVG 20010904//EN"
 "http://www.w3.org/TR/2001/REC-SVG-20010904/DTD/svg10.dtd">
<svg version="1.0" xmlns="http://www.w3.org/2000/svg"
 width="2481.000000pt" height="1748.000000pt" viewBox="0 0 2481.000000 1748.000000"
 preserveAspectRatio="xMidYMid meet">
<metadata>
Created by potrace 1.16, written by Peter Selinger 2001-2019
</metadata>
<g transform="translate(0.000000,1748.000000) scale(0.100000,-0.100000)"
fill="#000000" stroke="none">
<path d="M8710 9310 c0 -1710 4 -3110 8 -3110 5 0 12 -55 15 -122 4 -70 11
-124 17 -126 5 -2 10 -15 10 -28 0 -13 4 -24 9 -24 5 0 12 -22 16 -50 4 -27
11 -50 16 -50 5 0 9 -7 9 -15 0 -8 4 -15 9 -15 5 0 11 -17 14 -38 4 -21 15
-44 27 -52 11 -8 23 -29 26 -47 4 -19 14 -35 25 -38 10 -4 19 -15 19 -26 0
-11 7 -22 15 -25 8 -3 17 -15 21 -27 8 -25 189 -207 205 -207 7 0 19 -8 28
-19 9 -10 26 -21 39 -25 12 -4 22 -12 22 -17 0 -5 7 -9 15 -9 8 0 15 -4 15
-10 0 -5 11 -12 25 -16 14 -3 25 -10 25 -15 0 -5 7 -9 15 -9 8 0 15 -4 15 -10
0 -5 16 -12 35 -16 19 -3 35 -10 35 -15 0 -5 11 -9 25 -9 14 0 25 -4 25 -9 0
-5 23 -12 50 -16 28 -4 50 -11 50 -16 0 -5 18 -9 39 -9 23 0 41 -5 44 -12 6
-19 468 -19 475 0 2 6 19 12 38 12 19 0 34 4 34 9 0 5 25 12 55 16 30 3 55 11
55 16 0 5 7 9 15 9 8 0 15 4 15 9 0 5 16 12 35 15 19 4 35 11 35 16 0 6 7 10
15 10 8 0 15 4 15 9 0 5 14 11 31 15 18 3 39 14 48 25 9 10 26 21 39 25 12 4
22 12 22 17 0 5 5 9 11 9 6 0 24 13 41 30 16 17 34 30 39 30 13 0 119 107 119
121 0 5 11 20 25 33 14 13 25 26 25 30 0 4 6 14 13 21 29 33 37 45 37 55 0 5
4 10 9 10 5 0 12 11 15 25 4 14 11 25 16 25 6 0 10 7 10 15 0 8 4 15 9 15 6 0
13 20 17 45 3 25 10 45 15 45 5 0 9 7 9 15 0 8 4 15 9 15 5 0 12 23 16 50 4
28 11 50 16 50 5 0 9 13 9 29 0 16 6 31 13 33 9 4 13 422 15 2036 l2 2032
1985 0 c1317 0 1985 3 1985 10 0 6 23 10 50 10 28 0 50 4 50 9 0 4 27 11 60
15 33 4 60 11 60 16 0 6 11 10 25 10 14 0 25 4 25 10 0 5 18 13 40 16 22 4 40
10 40 15 0 5 7 9 15 9 8 0 15 5 15 10 0 6 9 10 20 10 11 0 23 7 26 15 4 8 15
15 25 15 10 0 19 4 19 9 0 5 11 12 25 15 14 4 25 11 25 16 0 6 5 10 11 10 7 0
26 16 45 35 18 19 37 35 43 35 14 0 111 95 111 109 0 6 15 26 34 44 18 18 36
43 40 55 4 12 12 22 17 22 5 0 9 7 9 15 0 8 4 15 10 15 5 0 12 11 16 25 3 14
10 25 15 25 5 0 9 7 9 15 0 8 4 15 9 15 5 0 12 16 15 35 4 19 11 35 16 35 6 0
10 7 10 15 0 8 4 15 9 15 5 0 12 23 16 50 4 28 11 50 16 50 5 0 9 11 9 24 0
13 4 26 10 28 5 2 13 42 16 91 4 48 11 87 15 87 5 0 9 56 9 125 0 69 -4 125
-9 125 -4 0 -11 39 -14 87 -4 48 -11 89 -17 91 -5 2 -10 19 -10 38 0 19 -4 34
-9 34 -5 0 -11 18 -15 40 -3 22 -11 40 -16 40 -6 0 -10 11 -10 25 0 14 -4 25
-10 25 -5 0 -12 16 -16 35 -3 20 -13 37 -24 40 -10 3 -20 20 -24 37 -3 17 -14
38 -25 47 -10 9 -21 26 -25 38 -4 12 -16 25 -27 28 -10 4 -19 15 -19 26 0 11
-7 22 -15 25 -8 3 -17 14 -20 24 -3 11 -15 22 -25 25 -10 3 -22 15 -25 25 -3
10 -15 22 -25 25 -10 3 -22 15 -25 25 -3 10 -16 22 -28 26 -11 4 -27 12 -34
18 -32 29 -43 36 -53 36 -5 0 -10 4 -10 10 0 5 -11 12 -25 16 -14 3 -25 10
-25 15 0 5 -7 9 -15 9 -8 0 -15 4 -15 9 0 5 -16 12 -35 15 -19 4 -35 11 -35
16 0 6 -7 10 -15 10 -8 0 -15 4 -15 9 0 5 -18 12 -40 16 -22 4 -40 11 -40 16
0 5 -11 9 -25 9 -14 0 -25 4 -25 9 0 5 -34 12 -75 16 -41 4 -75 11 -75 16 0 5
-1355 9 -3195 9 l-3195 0 0 -3110z"/>
<path d="M12680 9631 c0 -4 -39 -11 -87 -15 -49 -3 -89 -11 -91 -16 -2 -6 -19
-10 -38 -10 -19 0 -34 -4 -34 -9 0 -5 -22 -12 -50 -16 -27 -4 -50 -11 -50 -16
0 -5 -7 -9 -15 -9 -8 0 -15 -4 -15 -10 0 -5 -16 -12 -35 -16 -19 -3 -35 -10
-35 -15 0 -5 -7 -9 -15 -9 -8 0 -15 -4 -15 -9 0 -5 -13 -12 -30 -16 -16 -4
-30 -10 -30 -15 0 -5 -10 -12 -22 -16 -13 -4 -30 -15 -39 -25 -9 -11 -21 -19
-27 -19 -6 0 -22 -11 -35 -24 -13 -13 -33 -27 -45 -30 -11 -4 -24 -16 -27 -26
-3 -10 -15 -22 -25 -25 -10 -3 -22 -15 -25 -25 -3 -10 -15 -22 -25 -25 -10 -3
-22 -15 -25 -26 -4 -10 -11 -19 -16 -19 -5 0 -9 -5 -9 -11 0 -7 -15 -26 -34
-43 -18 -18 -37 -42 -40 -54 -4 -12 -12 -22 -17 -22 -5 0 -9 -7 -9 -15 0 -8
-4 -15 -10 -15 -5 0 -10 -9 -10 -20 0 -11 -7 -23 -15 -26 -8 -3 -17 -21 -21
-40 -3 -19 -10 -34 -15 -34 -5 0 -9 -7 -9 -15 0 -8 -4 -15 -9 -15 -5 0 -11
-18 -15 -40 -3 -22 -11 -40 -16 -40 -6 0 -10 -11 -10 -24 0 -13 -5 -26 -10
-28 -6 -2 -13 -33 -17 -71 -3 -37 -10 -67 -14 -67 -5 0 -9 -18 -9 -40 0 -22
-4 -40 -10 -40 -6 0 -10 -70 -10 -190 0 -120 4 -190 10 -190 6 0 10 -22 10
-50 0 -27 4 -50 9 -50 5 0 12 -25 16 -55 3 -30 11 -55 16 -55 5 0 9 -11 9 -25
0 -14 4 -25 9 -25 5 0 12 -20 15 -45 4 -25 11 -45 17 -45 5 0 9 -7 9 -15 0 -8
4 -15 10 -15 5 0 12 -16 16 -35 3 -19 10 -35 14 -35 4 0 11 -11 14 -25 4 -14
11 -25 16 -25 6 0 10 -7 10 -15 0 -8 4 -15 9 -15 5 0 12 -11 15 -24 3 -14 15
-28 26 -31 11 -3 20 -13 20 -21 0 -17 2153 -2174 2169 -2174 6 0 11 -4 11 -10
0 -5 11 -12 25 -16 14 -3 25 -10 25 -14 0 -5 10 -12 23 -16 12 -4 29 -15 38
-25 8 -10 27 -21 42 -24 15 -4 27 -11 27 -16 0 -5 9 -9 20 -9 11 0 20 -4 20
-10 0 -5 18 -13 40 -16 22 -4 40 -10 40 -15 0 -5 7 -9 15 -9 8 0 15 -4 15 -10
0 -5 27 -12 60 -16 33 -4 60 -11 60 -15 0 -5 13 -9 29 -9 16 0 31 -6 34 -12 3
-10 63 -13 257 -13 194 0 254 3 258 13 2 7 20 12 43 12 21 0 39 4 39 9 0 5 23
12 50 16 28 4 50 11 50 16 0 5 11 9 25 9 14 0 25 4 25 10 0 5 18 13 40 16 22
4 40 10 40 15 0 5 7 9 15 9 8 0 15 4 15 10 0 5 11 12 25 16 14 3 25 10 25 15
0 5 9 9 20 9 11 0 20 5 20 10 0 6 7 10 15 10 8 0 23 9 32 20 10 11 25 20 35
20 9 0 19 9 23 19 3 11 15 23 27 27 28 9 178 158 178 177 0 9 9 18 19 22 11 3
23 15 26 26 4 10 10 19 15 19 4 0 11 11 14 25 4 14 11 25 16 25 6 0 10 7 10
15 0 8 4 15 9 15 5 0 12 11 15 25 4 14 11 25 16 25 6 0 10 7 10 15 0 8 4 15
10 15 5 0 12 16 16 35 3 19 10 35 15 35 5 0 9 11 9 25 0 14 4 25 10 25 5 0 13
18 16 40 4 22 10 40 15 40 5 0 9 15 9 34 0 19 4 36 10 38 5 2 12 36 16 76 4
39 11 72 15 72 5 0 9 86 9 190 0 105 -4 190 -9 190 -4 0 -11 35 -15 78 -3 42
-11 79 -16 80 -6 2 -10 15 -10 28 0 13 -4 24 -9 24 -5 0 -12 23 -16 50 -4 28
-11 50 -16 50 -5 0 -9 7 -9 15 0 8 -4 15 -9 15 -5 0 -12 16 -15 35 -4 19 -11
35 -16 35 -6 0 -10 7 -10 15 0 8 -4 15 -9 15 -5 0 -12 15 -15 33 -3 18 -15 39
-26 47 -11 8 -20 20 -20 28 0 7 -7 15 -15 18 -8 3 -17 15 -21 27 -9 27 -2165
2183 -2192 2191 -12 4 -22 12 -22 17 0 5 -7 9 -15 9 -8 0 -15 4 -15 10 0 5
-11 12 -24 16 -14 3 -27 12 -30 20 -3 8 -15 14 -26 14 -11 0 -20 5 -20 10 0 6
-7 10 -15 10 -8 0 -15 4 -15 10 0 5 -16 12 -35 16 -19 3 -35 10 -35 15 0 5
-11 9 -24 9 -13 0 -26 5 -28 11 -2 6 -25 13 -51 16 -26 3 -47 10 -47 14 0 5
-11 9 -24 9 -13 0 -26 4 -28 10 -1 5 -45 12 -95 16 -51 4 -93 11 -93 15 0 5
-61 9 -135 9 -74 0 -135 -4 -135 -9z"/>
</g>
</svg>
